<svg id="Appointment" xmlns="http://www.w3.org/2000/svg" xmlns:xlink="http://www.w3.org/1999/xlink" viewBox="0 0 512 512"><defs><linearGradient id="linear-gradient" x1="245.1133" y1="287.2677" x2="90.4941" y2="88.7566" gradientUnits="userSpaceOnUse"><stop offset="0.0026" stop-color="#c7d4dd"/><stop offset="0.3062" stop-color="#d8e1e7"/><stop offset="0.6797" stop-color="#e6ecf0"/><stop offset="1" stop-color="#ebf0f3"/></linearGradient><linearGradient id="linear-gradient-2" x1="80.1034" y1="109.3119" x2="315.3339" y2="175.5605" gradientUnits="userSpaceOnUse"><stop offset="0.0056" stop-color="#91d3a7"/><stop offset="0.1857" stop-color="#87cca7"/><stop offset="0.6909" stop-color="#6ebda7"/><stop offset="1" stop-color="#65b7a7"/></linearGradient><linearGradient id="linear-gradient-3" x1="362.434" y1="386.29" x2="132.9991" y2="131.9166" gradientUnits="userSpaceOnUse"><stop offset="0.0056" stop-color="#f9d9c0"/><stop offset="0.3183" stop-color="#fae6d3"/><stop offset="0.5581" stop-color="#faecdc"/><stop offset="1" stop-color="#fbf2e7"/></linearGradient><linearGradient id="linear-gradient-4" x1="319.2763" y1="425.2166" x2="89.8414" y2="170.8431" xlink:href="#linear-gradient-3"/><linearGradient id="linear-gradient-5" x1="405.5918" y1="347.3634" x2="176.1569" y2="92.99" xlink:href="#linear-gradient-3"/><linearGradient id="linear-gradient-6" x1="329.8994" y1="415.635" x2="100.4645" y2="161.2615" xlink:href="#linear-gradient-3"/><linearGradient id="linear-gradient-7" x1="286.7417" y1="454.5616" x2="57.3068" y2="200.1881" xlink:href="#linear-gradient-3"/><linearGradient id="linear-gradient-8" x1="143.8271" y1="58.8582" x2="150.2246" y2="145.4708" gradientUnits="userSpaceOnUse"><stop offset="0.003" stop-color="#6d8175"/><stop offset="0.6061" stop-color="#42615f"/><stop offset="1" stop-color="#244b50"/></linearGradient><linearGradient id="linear-gradient-9" x1="303.8738" y1="47.0366" x2="310.2714" y2="133.6492" xlink:href="#linear-gradient-8"/><linearGradient id="linear-gradient-10" x1="391.3223" y1="383.6497" x2="240.6933" y2="228.033" gradientUnits="userSpaceOnUse"><stop offset="0.0026" stop-color="#df606a"/><stop offset="0.3357" stop-color="#eb746a"/><stop offset="0.6942" stop-color="#f4826a"/><stop offset="1" stop-color="#f7876a"/></linearGradient><linearGradient id="linear-gradient-11" x1="382.7026" y1="379.2219" x2="282.0395" y2="261.7817" xlink:href="#linear-gradient-3"/></defs><path d="M83.7606,180.0447H374.02a0,0,0,0,1,0,0V346.1563a19.4364,19.4364,0,0,1-19.4364,19.4364H103.197a19.4364,19.4364,0,0,1-19.4364-19.4364V180.0447A0,0,0,0,1,83.7606,180.0447Z" style="fill:url(#linear-gradient)"/><path d="M102.7754,117.038h251.808A19.4364,19.4364,0,0,1,374.02,136.4745v44.0863a0,0,0,0,1,0,0H83.339a0,0,0,0,1,0,0V136.4745A19.4364,19.4364,0,0,1,102.7754,117.038Z" style="fill:url(#linear-gradient-2)"/><circle cx="228.8902" cy="238.2306" r="13.8512" style="fill:url(#linear-gradient-3)"/><circle cx="150.6223" cy="238.2306" r="13.8512" style="fill:url(#linear-gradient-4)"/><circle cx="307.1582" cy="238.2306" r="13.8512" style="fill:url(#linear-gradient-5)"/><circle cx="228.8902" cy="303.6466" r="13.8512" style="fill:url(#linear-gradient-6)"/><circle cx="150.6223" cy="303.6466" r="13.8512" style="fill:url(#linear-gradient-7)"/><path d="M148.22,144.248a6,6,0,0,1-6-6V98.4072a6,6,0,1,1,12,0V138.248A6,6,0,0,1,148.22,144.248Z" style="fill:url(#linear-gradient-8)"/><path d="M309.14,144.248a6,6,0,0,1-6-6V98.4072a6,6,0,1,1,12,0V138.248A6,6,0,0,1,309.14,144.248Z" style="fill:url(#linear-gradient-9)"/><circle cx="349.1776" cy="340.1094" r="79.4834" style="fill:url(#linear-gradient-10)"/><polygon points="395.15 320.154 369.133 320.154 369.133 294.137 329.222 294.137 329.222 320.154 303.205 320.154 303.205 360.065 329.222 360.065 329.222 386.082 369.133 386.082 369.133 360.065 395.15 360.065 395.15 320.154" style="fill:url(#linear-gradient-11)"/></svg>