<svg version="1.1" id="Layer_1" xmlns="http://www.w3.org/2000/svg" xmlns:xlink="http://www.w3.org/1999/xlink" x="0px" y="0px"
	 width="100%" viewBox="0 0 512 512" enable-background="new 0 0 512 512" xml:space="preserve">
<path fill="#00ACEA" opacity="1.000000" stroke="none" 
	d="
M63.000000,1.000000 
	C126.020897,1.000000 189.041794,1.000000 252.544708,1.468501 
	C253.034973,27.920284 252.915558,53.904415 253.088837,79.886597 
	C253.248886,103.887222 269.561646,119.961075 293.469086,119.993759 
	C315.621490,120.024040 337.774048,120.025993 359.926270,119.959259 
	C362.029968,119.952927 364.131927,119.367920 366.546448,119.331772 
	C366.905487,121.605484 366.992554,123.598953 366.994141,125.592484 
	C367.021790,160.363007 367.039001,195.133530 366.622375,230.060394 
	C364.197632,230.102036 362.199768,230.072754 360.221710,229.859573 
	C338.189697,227.485046 316.917053,230.699936 296.201630,238.340027 
	C282.065094,243.553757 269.499878,251.489059 257.189301,259.985962 
	C253.305038,258.439484 249.652039,256.151611 245.987167,256.132446 
	C199.534698,255.889511 153.080490,255.969101 106.626740,255.988953 
	C104.971451,255.989670 103.275101,256.033600 101.668510,256.382568 
	C96.164856,257.578003 92.705208,262.083252 92.924774,267.546082 
	C93.140747,272.919403 97.078552,277.245911 102.590302,277.934814 
	C104.726250,278.201782 106.910866,278.124695 109.073395,278.126984 
	C152.362610,278.172974 195.651825,278.207642 238.814743,278.540588 
	C231.295609,290.537048 223.902771,302.237549 216.112640,313.725891 
	C213.409119,313.281311 211.103165,312.849426 208.796661,312.846436 
	C175.011520,312.802734 141.226288,312.813385 107.441086,312.824646 
	C105.779549,312.825195 104.100136,312.817871 102.459831,313.040741 
	C97.152634,313.761810 93.324203,317.840240 92.956680,323.020966 
	C92.574867,328.403320 95.533272,332.828583 100.841118,334.258911 
	C103.047379,334.853455 105.434998,334.967194 107.740738,334.971344 
	C141.525543,335.032318 175.310471,335.037781 209.107941,335.463745 
	C203.714859,357.858337 202.732986,380.074158 208.355347,402.002960 
	C211.586349,414.604858 217.123718,426.615417 221.112473,438.931488 
	C172.944534,438.980530 125.286766,439.058929 77.629700,438.911774 
	C71.783356,438.893707 65.814102,438.217499 60.119465,436.903229 
	C40.936424,432.475922 25.025898,413.361572 25.019033,393.286835 
	C24.979715,278.308655 25.012102,163.330460 24.986572,48.352280 
	C24.982813,31.424959 32.593956,18.500021 46.146606,9.126618 
	C51.213966,5.621885 57.350796,3.663466 63.000000,1.000000 
M175.499939,222.650726 
	C187.648438,222.650574 199.797150,222.687363 211.945282,222.619644 
	C214.424957,222.605820 216.958572,222.453491 219.369095,221.920609 
	C224.181290,220.856796 227.691177,216.181305 227.648392,211.345993 
	C227.606857,206.651642 224.333664,202.210663 219.723846,200.996887 
	C217.660263,200.453537 215.462128,200.195404 213.324539,200.192520 
	C177.877594,200.144745 142.430557,200.143890 106.983612,200.193146 
	C104.847862,200.196106 102.645515,200.463699 100.590881,201.030975 
	C95.705124,202.379913 92.678688,206.856598 92.908958,211.962982 
	C93.127441,216.807709 96.390602,220.930374 101.172791,221.946014 
	C103.588928,222.459167 106.119164,222.616608 108.598511,222.622177 
	C130.565567,222.671341 152.532761,222.650375 175.499939,222.650726 
z"/>
<path fill="#FFFFFF" opacity="1.000000" stroke="none" 
	d="
M367.058472,229.904053 
	C367.039001,195.133530 367.021790,160.363007 366.994141,125.592484 
	C366.992554,123.598953 366.905487,121.605484 366.379883,119.018417 
	C354.678314,106.527710 343.482330,94.604736 332.224762,82.740150 
	C318.794220,68.585373 305.360657,54.432846 291.835632,40.368542 
	C279.891663,27.948298 267.816650,15.654087 255.814545,3.289617 
	C255.139679,2.594382 254.601685,1.766271 254.000000,1.000001 
	C340.292328,1.000000 426.584625,1.000000 512.938477,1.000000 
	C512.938477,171.544540 512.938477,342.089111 512.938477,513.000000 
	C463.313049,513.000000 413.625183,513.000000 363.686432,512.651978 
	C367.357330,511.822113 371.346069,511.647339 375.190186,510.809357 
	C402.510742,504.853821 426.555786,492.341522 446.405334,472.741730 
	C454.637939,464.612762 461.567505,454.949493 468.007355,445.264313 
	C481.326385,425.233215 487.486877,402.577209 488.857361,378.810608 
	C490.143616,356.504730 486.237762,334.957275 477.232727,314.270020 
	C468.028290,293.124634 454.578613,275.226715 436.958649,260.710724 
	C416.662354,243.989746 393.106171,233.940414 367.058472,229.904053 
z"/>
<path fill="#FDDB41" opacity="1.000000" stroke="none" 
	d="
M366.622375,230.060394 
	C393.106171,233.940414 416.662354,243.989746 436.958649,260.710724 
	C454.578613,275.226715 468.028290,293.124634 477.232727,314.270020 
	C486.237762,334.957275 490.143616,356.504730 488.857361,378.810608 
	C487.486877,402.577209 481.326385,425.233215 468.007355,445.264313 
	C461.567505,454.949493 454.637939,464.612762 446.405334,472.741730 
	C426.555786,492.341522 402.510742,504.853821 375.190186,510.809357 
	C371.346069,511.647339 367.357330,511.822113 363.217773,512.651978 
	C352.312439,513.000000 341.624878,513.000000 330.250885,512.651978 
	C314.034210,510.913300 299.464172,506.209839 285.353546,499.753082 
	C269.412079,492.458496 255.325607,482.338043 243.695038,469.492950 
	C235.305450,460.227295 228.908539,449.157379 221.622849,438.892181 
	C217.123718,426.615417 211.586349,414.604858 208.355347,402.002960 
	C202.732986,380.074158 203.714859,357.858337 209.344757,335.179504 
	C211.882645,327.638031 214.196304,320.788055 216.509949,313.938049 
	C223.902771,302.237549 231.295609,290.537048 239.120758,278.371948 
	C245.507080,272.037872 251.461075,266.168396 257.415039,260.298920 
	C269.499878,251.489059 282.065094,243.553757 296.201630,238.340027 
	C316.917053,230.699936 338.189697,227.485046 360.221710,229.859573 
	C362.199768,230.072754 364.197632,230.102036 366.622375,230.060394 
M265.289093,316.825378 
	C264.843842,317.528961 264.391296,318.228027 263.954437,318.936768 
	C245.779282,348.423126 247.513474,382.968781 268.550110,410.512177 
	C288.063080,436.060638 322.648163,446.939362 354.672516,436.924530 
	C363.090271,434.292114 370.894440,429.697723 380.089081,425.497894 
	C389.623047,435.273346 399.763794,445.857544 410.126587,456.219757 
	C415.568390,461.661316 422.375336,461.930145 427.015900,457.391632 
	C431.624756,452.884094 431.267609,446.043854 425.883270,440.540039 
	C418.891663,433.393311 411.765320,426.377655 404.653015,419.350098 
	C401.254364,415.992035 397.754272,412.736664 394.316620,409.450562 
	C395.620697,407.486633 396.435455,406.247162 397.262482,405.015869 
	C416.923553,375.745087 414.072388,335.178864 390.522858,309.142822 
	C355.574554,270.504456 297.155518,273.835846 265.289093,316.825378 
z"/>
<path fill="#FFFFFF" opacity="1.000000" stroke="none" 
	d="
M221.112473,438.931488 
	C228.908539,449.157379 235.305450,460.227295 243.695038,469.492950 
	C255.325607,482.338043 269.412079,492.458496 285.353546,499.753082 
	C299.464172,506.209839 314.034210,510.913300 329.782227,512.651978 
	C220.386475,513.000000 110.772949,513.000000 1.079714,513.000000 
	C1.079714,342.333344 1.079714,171.666687 1.085968,1.000006 
	C21.415709,1.000000 41.739197,1.000000 62.531342,1.000000 
	C57.350796,3.663466 51.213966,5.621885 46.146606,9.126618 
	C32.593956,18.500021 24.982813,31.424959 24.986572,48.352280 
	C25.012102,163.330460 24.979715,278.308655 25.019033,393.286835 
	C25.025898,413.361572 40.936424,432.475922 60.119465,436.903229 
	C65.814102,438.217499 71.783356,438.893707 77.629700,438.911774 
	C125.286766,439.058929 172.944534,438.980530 221.112473,438.931488 
z"/>
<path fill="#00EFD1" opacity="1.000000" stroke="none" 
	d="
M253.750000,1.000001 
	C254.601685,1.766271 255.139679,2.594382 255.814545,3.289617 
	C267.816650,15.654087 279.891663,27.948298 291.835632,40.368542 
	C305.360657,54.432846 318.794220,68.585373 332.224762,82.740150 
	C343.482330,94.604736 354.678314,106.527710 366.068115,118.738205 
	C364.131927,119.367920 362.029968,119.952927 359.926270,119.959259 
	C337.774048,120.025993 315.621490,120.024040 293.469086,119.993759 
	C269.561646,119.961075 253.248886,103.887222 253.088837,79.886597 
	C252.915558,53.904415 253.034973,27.920284 253.013367,1.468501 
	C253.000000,1.000000 253.500000,1.000000 253.750000,1.000001 
z"/>
<path fill="#083863" opacity="1.000000" stroke="none" 
	d="
M257.189301,259.985962 
	C251.461075,266.168396 245.507080,272.037872 239.247070,278.075958 
	C195.651825,278.207642 152.362610,278.172974 109.073395,278.126984 
	C106.910866,278.124695 104.726250,278.201782 102.590302,277.934814 
	C97.078552,277.245911 93.140747,272.919403 92.924774,267.546082 
	C92.705208,262.083252 96.164856,257.578003 101.668510,256.382568 
	C103.275101,256.033600 104.971451,255.989670 106.626740,255.988953 
	C153.080490,255.969101 199.534698,255.889511 245.987167,256.132446 
	C249.652039,256.151611 253.305038,258.439484 257.189301,259.985962 
z"/>
<path fill="#083C67" opacity="1.000000" stroke="none" 
	d="
M174.999939,222.650421 
	C152.532761,222.650375 130.565567,222.671341 108.598511,222.622177 
	C106.119164,222.616608 103.588928,222.459167 101.172791,221.946014 
	C96.390602,220.930374 93.127441,216.807709 92.908958,211.962982 
	C92.678688,206.856598 95.705124,202.379913 100.590881,201.030975 
	C102.645515,200.463699 104.847862,200.196106 106.983612,200.193146 
	C142.430557,200.143890 177.877594,200.144745 213.324539,200.192520 
	C215.462128,200.195404 217.660263,200.453537 219.723846,200.996887 
	C224.333664,202.210663 227.606857,206.651642 227.648392,211.345993 
	C227.691177,216.181305 224.181290,220.856796 219.369095,221.920609 
	C216.958572,222.453491 214.424957,222.605820 211.945282,222.619644 
	C199.797150,222.687363 187.648438,222.650574 174.999939,222.650421 
z"/>
<path fill="#083863" opacity="1.000000" stroke="none" 
	d="
M216.112640,313.725891 
	C214.196304,320.788055 211.882645,327.638031 209.332169,334.772278 
	C175.310471,335.037781 141.525543,335.032318 107.740738,334.971344 
	C105.434998,334.967194 103.047379,334.853455 100.841118,334.258911 
	C95.533272,332.828583 92.574867,328.403320 92.956680,323.020966 
	C93.324203,317.840240 97.152634,313.761810 102.459831,313.040741 
	C104.100136,312.817871 105.779549,312.825195 107.441086,312.824646 
	C141.226288,312.813385 175.011520,312.802734 208.796661,312.846436 
	C211.103165,312.849426 213.409119,313.281311 216.112640,313.725891 
z"/>
<path fill="#0B3A63" opacity="1.000000" stroke="none" 
	d="
M265.513611,316.542084 
	C297.155518,273.835846 355.574554,270.504456 390.522858,309.142822 
	C414.072388,335.178864 416.923553,375.745087 397.262482,405.015869 
	C396.435455,406.247162 395.620697,407.486633 394.316620,409.450562 
	C397.754272,412.736664 401.254364,415.992035 404.653015,419.350098 
	C411.765320,426.377655 418.891663,433.393311 425.883270,440.540039 
	C431.267609,446.043854 431.624756,452.884094 427.015900,457.391632 
	C422.375336,461.930145 415.568390,461.661316 410.126587,456.219757 
	C399.763794,445.857544 389.623047,435.273346 380.089081,425.497894 
	C370.894440,429.697723 363.090271,434.292114 354.672516,436.924530 
	C322.648163,446.939362 288.063080,436.060638 268.550110,410.512177 
	C247.513474,382.968781 245.779282,348.423126 263.954437,318.936768 
	C264.391296,318.228027 264.843842,317.528961 265.513611,316.542084 
M313.063019,307.345093 
	C284.496155,317.962830 269.223541,344.400604 274.992767,373.246918 
	C281.124878,403.907501 312.332336,423.903412 343.346436,417.043915 
	C374.373444,410.181519 394.136658,378.825317 386.594086,348.427429 
	C378.565613,316.071350 347.280975,298.302185 313.063019,307.345093 
z"/>
<path fill="#FDDA41" opacity="1.000000" stroke="none" 
	d="
M313.445770,307.221466 
	C347.280975,298.302185 378.565613,316.071350 386.594086,348.427429 
	C394.136658,378.825317 374.373444,410.181519 343.346436,417.043915 
	C312.332336,423.903412 281.124878,403.907501 274.992767,373.246918 
	C269.223541,344.400604 284.496155,317.962830 313.445770,307.221466 
z"/>
</svg>